<?xml version="1.0" standalone="no"?>
<!DOCTYPE svg PUBLIC "-//W3C//DTD SVG 20010904//EN"
  "http://www.w3.org/TR/2001/REC-SVG-20010904/DTD/svg10.dtd">
<svg version="1.0" xmlns="http://www.w3.org/2000/svg"
  width="512.000000pt" height="512.000000pt" viewBox="0 0 512.000000 512.000000"
  preserveAspectRatio="xMidYMid meet">
<metadata>
Created by potrace 1.14, written by Peter Selinger 2001-2017
</metadata>
<g transform="translate(0.000000,512.000000) scale(0.100000,-0.100000)"
fill="#000000" stroke="none">
<path d="M0 2560 l0 -2560 2560 0 2560 0 0 2560 0 2560 -2560 0 -2560 0 0
-2560z m2105 2069 c1134 -79 1962 -505 2303 -1184 164 -328 221 -741 152
-1100 -205 -1059 -1456 -1858 -3010 -1921 -165 -6 -486 8 -584 27 -52 10 -92
38 -107 76 -11 30 28 3983 40 4014 20 53 54 71 151 81 258 25 743 29 1055 7z"/>
<path d="M1420 4563 c-134 -3 -442 -22 -448 -27 -4 -4 -43 -3918 -39 -3922 1
-2 69 -8 151 -15 186 -15 600 -7 781 15 1124 137 2046 675 2400 1401 70 143
111 271 137 420 27 160 21 455 -12 610 -124 580 -532 1011 -1202 1269 -277
107 -604 182 -962 221 -148 16 -529 36 -636 33 -36 -1 -112 -3 -170 -5z m919
-1039 c138 -20 295 -72 401 -131 100 -57 246 -196 299 -285 191 -326 128 -711
-159 -982 -203 -191 -475 -294 -847 -321 l-83 -5 0 47 c-1 71 71 1666 76 1681
5 18 181 16 313 -4z"/>
<path d="M2180 3328 c0 -29 -14 -336 -30 -683 -16 -346 -30 -659 -30 -693 l0
-64 63 7 c257 28 493 128 648 273 97 91 163 189 203 301 27 77 31 98 31 201 0
91 -5 129 -22 185 -74 234 -286 414 -569 484 -59 15 -244 41 -290 41 -2 0 -4
-24 -4 -52z"/>
</g>
</svg>
